<svg width="86" height="56" viewBox="0 0 86 56" fill="none" xmlns="http://www.w3.org/2000/svg">
<path d="M48.5413 43.6242C48.0327 41.0799 46.174 39.0373 43.6871 38.2915L33.9083 35.3582V32.5835C35.0745 31.2594 35.9283 29.6591 36.3665 27.8934C38.9498 27.395 40.9083 25.1255 40.9083 22.4V15.4C40.9083 6.90908 33.9992 0 25.5083 0C17.0174 0 10.1083 6.90908 10.1083 15.4V22.4C10.1083 25.1255 12.0668 27.395 14.6501 27.8934C15.0883 29.6591 15.9421 31.2594 17.1083 32.5835V35.3582L7.32949 38.2929C4.84463 39.0373 2.98389 41.0819 2.47529 43.6256L0 56H51.0166L48.5413 43.6242ZM19.9083 34.8852C21.5578 35.8429 23.4671 36.4 25.5083 36.4C27.5495 36.4 29.4588 35.8429 31.1083 34.8852V35.6077L25.5083 38.9676L19.9083 35.6077V34.8852ZM32.699 37.9189L33.9083 38.2819V41.4203L31.1083 44.2203L27.7662 40.8789L32.699 37.9189ZM25.5083 33.6C20.8756 33.6 17.1083 29.8327 17.1083 25.2V20.6097L22.7083 18.7421V21H24.1083C27.4627 21 30.8171 20.3109 33.9083 19.0053V25.2C33.9083 29.8327 30.141 33.6 25.5083 33.6ZM36.7083 24.811V19.9903C37.5416 20.4764 38.1083 21.3698 38.1083 22.4014C38.1083 23.4329 37.5416 24.325 36.7083 24.811ZM25.5083 2.8C32.4563 2.8 38.1083 8.45332 38.1083 15.4V17.5786C37.6742 17.325 37.2066 17.1274 36.7083 16.9989V15.4H33.9083V15.9236C31.2901 17.2033 28.4163 17.9703 25.5083 18.1569V14.8593L17.1083 17.6593V15.4H14.3083V16.9989C13.81 17.1288 13.3424 17.325 12.9083 17.5786V15.4C12.9083 8.45332 18.5603 2.8 25.5083 2.8ZM12.9083 22.4C12.9083 21.3685 13.475 20.475 14.3083 19.989V24.8097C13.475 24.325 12.9083 23.4315 12.9083 22.4ZM18.3176 37.9189L23.2504 40.8789L19.9083 44.2203L17.1083 41.4203V38.2819L18.3176 37.9189ZM39.3237 53.2L38.096 44.6011L35.324 44.9976L36.4943 53.2H14.5223L15.6946 44.9989L12.922 44.6024L11.6929 53.2H3.4166L5.22061 44.1745C5.52617 42.648 6.64316 41.4217 8.13271 40.9753L14.3083 39.1214V42.5797L19.9083 48.1797L25.5083 42.5797L31.1083 48.1797L36.7083 42.5797V39.1214L42.8839 40.9739C44.3734 41.4203 45.4904 42.6467 45.796 44.1725L47.6 53.2H39.3237Z" fill="white"/>
<path d="M80.6784 14.6453C80.4638 14.0109 80.2088 13.3923 79.9148 12.7962L82.7586 8.53193L77.1764 2.94971L72.9107 5.79209C72.3146 5.49951 71.6974 5.24453 71.0616 5.02852L70.0547 0H62.1605L61.1536 5.02852C60.5179 5.24453 59.8992 5.49951 59.3045 5.79209L55.0382 2.94971L49.4566 8.53193L52.3004 12.7962C52.0058 13.3923 51.7515 14.0109 51.5368 14.6453L46.5083 15.6522V23.5478L51.5382 24.5547C51.7528 25.1891 52.0078 25.8077 52.3018 26.4038L49.458 30.6681L55.0416 36.2503L59.3059 33.4065C59.902 33.6991 60.5192 33.9555 61.155 34.1701L62.1619 39.2H70.0561L71.063 34.1715C71.6987 33.9555 72.3174 33.7005 72.9121 33.4079L77.1764 36.2517L82.76 30.6701L79.9162 26.4052C80.2108 25.8091 80.4651 25.1904 80.6798 24.5561L85.7083 23.5478V15.6522L80.6784 14.6453ZM82.9083 21.2522L78.4663 22.1409L78.2366 22.9729C77.9618 23.9641 77.5701 24.9143 77.0704 25.7961L76.6445 26.5467L79.1547 30.3112L76.8195 32.6478L73.0536 30.1376L72.3044 30.5621C71.4267 31.0604 70.4751 31.4521 69.4784 31.7297L68.6479 31.9594L67.7619 36.4H64.4561L63.5688 31.9594L62.7382 31.7297C61.7415 31.4521 60.7899 31.0604 59.9122 30.5621L59.163 30.1376L55.3971 32.6478L53.0619 30.3112L55.5721 26.5467L55.1462 25.7961C54.6465 24.9143 54.2548 23.9641 53.98 22.9729L53.7503 22.1409L49.3083 21.2522V17.9478L53.7503 17.0591L53.98 16.2271C54.2548 15.2359 54.6465 14.2857 55.1462 13.4039L55.5721 12.6533L53.0619 8.88877L55.3984 6.55225L59.1616 9.06104L59.9122 8.63652C60.7899 8.13955 61.7415 7.74648 62.7382 7.47031L63.5688 7.24062L64.4547 2.8H67.7605L68.6479 7.24062L69.4784 7.47031C70.4751 7.74785 71.4267 8.13955 72.3044 8.63652L73.055 9.06104L76.8182 6.55225L79.1547 8.88877L76.6445 12.6533L77.0704 13.4039C77.5701 14.2857 77.9618 15.2359 78.2366 16.2271L78.4663 17.0591L82.9083 17.9478V21.2522Z" fill="white"/>
<path d="M66.1083 9.80005C60.7059 9.80005 56.3083 14.1962 56.3083 19.6C56.3083 25.0039 60.7059 29.4 66.1083 29.4C71.5108 29.4 75.9083 25.0039 75.9083 19.6C75.9083 14.1962 71.5108 9.80005 66.1083 9.80005ZM66.1083 26.6C62.2488 26.6 59.1083 23.4596 59.1083 19.6C59.1083 15.7405 62.2488 12.6 66.1083 12.6C69.9679 12.6 73.1083 15.7405 73.1083 19.6C73.1083 23.4596 69.9679 26.6 66.1083 26.6Z" fill="white"/>
</svg>
