<svg width="59" height="54" viewBox="0 0 59 54" fill="none" xmlns="http://www.w3.org/2000/svg">
<path d="M33.9443 40.6387C34.6358 39.8746 35.0908 38.9263 35.254 37.9088C35.4171 36.8913 35.2815 35.8483 34.8636 34.9063C34.4456 33.9643 33.7633 33.1639 32.8994 32.6021C32.0355 32.0403 31.0272 31.7412 29.9966 31.7412C28.9661 31.7412 27.9577 32.0403 27.0938 32.6021C26.2299 33.1639 25.5476 33.9643 25.1297 34.9063C24.7117 35.8483 24.5761 36.8913 24.7393 37.9088C24.9025 38.9263 25.3574 39.8746 26.049 40.6387C22.8141 41.5557 19.9967 43.5647 18.0757 46.3242C17.9403 46.5187 17.8678 46.7499 17.8678 46.9869C17.8678 47.2238 17.9403 47.4551 18.0757 47.6495C19.4106 49.5756 21.1924 51.1496 23.2685 52.2366C25.3446 53.3237 27.6532 53.8915 29.9966 53.8915C32.3401 53.8915 34.6487 53.3237 36.7248 52.2366C38.8009 51.1496 40.5826 49.5756 41.9176 47.6495C42.0527 47.455 42.1251 47.2238 42.1251 46.9869C42.1251 46.75 42.0527 46.5188 41.9176 46.3242C39.9968 43.5645 37.1793 41.5554 33.9443 40.6387ZM26.9919 37.0785C26.9919 36.4844 27.1681 35.9036 27.4982 35.4095C27.8282 34.9155 28.2974 34.5304 28.8463 34.303C29.3952 34.0756 29.9992 34.0161 30.5819 34.1319C31.1647 34.2478 31.7 34.5338 32.1202 34.9539C32.5404 35.3739 32.8266 35.9091 32.9426 36.4918C33.0586 37.0745 32.9992 37.6786 32.772 38.2275C32.5448 38.7765 32.1598 39.2458 31.6659 39.576C31.172 39.9062 30.5912 40.0826 29.9971 40.0828C29.2006 40.0818 28.437 39.7649 27.8738 39.2017C27.3107 38.6386 26.9938 37.875 26.9928 37.0785H26.9919ZM29.9971 51.5708C28.1679 51.5686 26.3627 51.1555 24.7146 50.362C23.0666 49.5684 21.6179 48.4146 20.4757 46.986C21.6168 45.5561 23.0652 44.4015 24.7135 43.608C26.3619 42.8146 28.1677 42.4025 29.9971 42.4025C31.8265 42.4025 33.6323 42.8146 35.2807 43.608C36.929 44.4015 38.3774 45.5561 39.5184 46.986C38.3764 48.4148 36.9278 49.5687 35.2797 50.3623C33.6317 51.1559 31.8263 51.5689 29.9971 51.5708Z" fill="white"/>
<path d="M50.8189 37.2827C51.5103 36.5186 51.9651 35.5703 52.1282 34.5528C52.2913 33.5354 52.1556 32.4924 51.7376 31.5505C51.3197 30.6086 50.6373 29.8083 49.7735 29.2465C48.9096 28.6848 47.9013 28.3857 46.8708 28.3857C45.8403 28.3857 44.832 28.6848 43.9681 29.2465C43.1043 29.8083 42.422 30.6086 42.004 31.5505C41.586 32.4924 41.4503 33.5354 41.6134 34.5528C41.7765 35.5703 42.2313 36.5186 42.9227 37.2827C41.9226 37.5624 40.9558 37.9495 40.0391 38.4373C39.8965 38.5042 39.7691 38.5996 39.6645 38.7174C39.56 38.8353 39.4805 38.9732 39.431 39.1227C39.3815 39.2723 39.363 39.4304 39.3766 39.5873C39.3902 39.7443 39.4356 39.8968 39.5101 40.0356C39.5845 40.1744 39.6865 40.2967 39.8097 40.3948C39.9329 40.4929 40.0749 40.5649 40.2268 40.6064C40.3788 40.6479 40.5376 40.658 40.6936 40.6361C40.8496 40.6142 40.9996 40.5608 41.1342 40.4791C43.6452 39.1399 46.5456 38.7219 49.3326 39.2974C52.1195 39.8729 54.6171 41.4057 56.3922 43.63C55.2499 45.0584 53.8011 46.2119 52.1531 47.0051C50.5051 47.7984 48.6998 48.2112 46.8708 48.2129C46.5631 48.2129 46.268 48.3351 46.0505 48.5527C45.8329 48.7703 45.7107 49.0654 45.7107 49.373C45.7107 49.6807 45.8329 49.9758 46.0505 50.1934C46.268 50.4109 46.5631 50.5332 46.8708 50.5332C49.2136 50.5312 51.5212 49.9628 53.597 48.8766C55.6727 47.7903 57.4551 46.2183 58.7922 44.2945C58.9273 44.0999 58.9997 43.8687 58.9997 43.6318C58.9997 43.395 58.9273 43.1637 58.7922 42.9692C56.8714 40.2093 54.0539 38.1999 50.8189 37.2827ZM43.8666 33.7225C43.8666 33.1283 44.0428 32.5475 44.3729 32.0535C44.703 31.5594 45.1722 31.1743 45.7211 30.947C46.2701 30.7196 46.8741 30.6601 47.4569 30.776C48.0397 30.8919 48.575 31.178 48.9951 31.5982C49.4153 32.0184 49.7014 32.5537 49.8173 33.1364C49.9333 33.7192 49.8738 34.3233 49.6464 34.8722C49.419 35.4212 49.0339 35.8904 48.5399 36.2205C48.0458 36.5506 47.465 36.7268 46.8708 36.7268C46.0743 36.7258 45.3108 36.409 44.7476 35.8458C44.1844 35.2826 43.8675 34.519 43.8666 33.7225Z" fill="white"/>
<path d="M13.1224 48.2148C11.2934 48.2127 9.48829 47.7999 7.84028 47.0066C6.19228 46.2134 4.74354 45.0601 3.60106 43.6318C4.74335 42.2033 6.19204 41.0497 7.84007 40.2563C9.4881 39.4629 11.2933 39.0499 13.1224 39.0479C14.9932 39.0422 16.8397 39.4721 18.5156 40.3037C18.7904 40.4329 19.1049 40.4492 19.3915 40.3492C19.6782 40.2492 19.9143 40.0407 20.049 39.7686C20.1837 39.4965 20.2064 39.1824 20.1122 38.8937C20.0179 38.6051 19.8142 38.3649 19.5448 38.2247C18.7478 37.8374 17.9168 37.5245 17.0622 37.2901C17.7555 36.5271 18.2124 35.5793 18.3774 34.5616C18.5424 33.544 18.4085 32.5003 17.9918 31.5574C17.5751 30.6144 16.8936 29.8127 16.0301 29.2495C15.1666 28.6863 14.1581 28.386 13.1272 28.3849C12.0963 28.3838 11.0872 28.682 10.2225 29.2433C9.35774 29.8047 8.67458 30.605 8.2559 31.5471C7.83723 32.4891 7.70106 33.5325 7.86392 34.5505C8.02678 35.5685 8.48167 36.5173 9.17336 37.2818C5.93856 38.1989 3.12117 40.2079 1.20007 42.9673C1.06473 43.1618 0.992188 43.393 0.992188 43.63C0.992188 43.8669 1.06473 44.0981 1.20007 44.2926C2.53683 46.2167 4.31893 47.7892 6.39453 48.8759C8.47012 49.9627 10.7777 50.5316 13.1206 50.5341C13.4282 50.5341 13.7233 50.4118 13.9409 50.1943C14.1584 49.9767 14.2807 49.6816 14.2807 49.374C14.2807 49.0663 14.1584 48.7712 13.9409 48.5536C13.7233 48.3361 13.4282 48.2138 13.1206 48.2138L13.1224 48.2148ZM10.1182 33.7225C10.1182 33.1283 10.2944 32.5475 10.6245 32.0534C10.9546 31.5594 11.4238 31.1743 11.9727 30.947C12.5217 30.7196 13.1257 30.6601 13.7085 30.776C14.2913 30.8919 14.8266 31.178 15.2467 31.5982C15.6669 32.0183 15.953 32.5537 16.0689 33.1364C16.1849 33.7192 16.1254 34.3232 15.898 34.8722C15.6706 35.4212 15.2855 35.8904 14.7915 36.2205C14.2974 36.5506 13.7166 36.7268 13.1224 36.7268C12.3259 36.7258 11.5624 36.409 10.9992 35.8458C10.436 35.2826 10.1191 34.519 10.1182 33.7225Z" fill="white"/>
<path d="M17.4492 25.3503C18.2595 22.612 19.9433 20.2138 22.2437 18.5218C24.5441 16.8297 27.3349 15.9366 30.1903 15.9786C33.0457 16.0207 35.809 16.9956 38.0586 18.7547C40.3082 20.5138 41.9206 22.9605 42.6498 25.7216C42.7284 26.0191 42.9219 26.2734 43.1878 26.4283C43.4538 26.5832 43.7704 26.6261 44.068 26.5476C44.3656 26.469 44.6198 26.2755 44.7747 26.0096C44.9296 25.7436 44.9725 25.427 44.894 25.1294C44.036 21.8785 42.1381 18.9975 39.4899 16.9259C36.8416 14.8543 33.5884 13.706 30.2265 13.656C26.8646 13.606 23.5787 14.6572 20.87 16.6492C18.1614 18.6412 16.1787 21.4646 15.2246 24.6886C15.1372 24.984 15.1707 25.302 15.3178 25.5726C15.4649 25.8433 15.7134 26.0444 16.0088 26.1318C16.3042 26.2192 16.6222 26.1856 16.8928 26.0385C17.1635 25.8915 17.3646 25.6429 17.452 25.3475L17.4492 25.3503Z" fill="white"/>
<path d="M57.84 23.6796H52.4932C51.9322 21.3122 50.997 19.0495 49.7229 16.9769L53.4993 13.1995C53.607 13.0918 53.6925 12.9639 53.7508 12.8231C53.8092 12.6824 53.8392 12.5315 53.8392 12.3791C53.8392 12.2267 53.8092 12.0759 53.7508 11.9351C53.6925 11.7943 53.607 11.6664 53.4993 11.5587L47.5112 5.57058C47.4035 5.46282 47.2756 5.37734 47.1348 5.31902C46.994 5.2607 46.8431 5.23069 46.6908 5.23069C46.5384 5.23069 46.3875 5.2607 46.2467 5.31902C46.106 5.37734 45.978 5.46282 45.8703 5.57058L42.0939 9.34701C40.0212 8.07266 37.7586 7.13714 35.3912 6.57571V1.2308C35.3912 0.923117 35.2689 0.628035 35.0514 0.41047C34.8338 0.192905 34.5387 0.0706787 34.231 0.0706787H25.7622C25.4545 0.0706787 25.1594 0.192905 24.9418 0.41047C24.7243 0.628035 24.602 0.923117 24.602 1.2308V6.57664C22.2349 7.13799 19.9725 8.07352 17.9002 9.34794L14.1266 5.57151C13.9048 5.36193 13.6113 5.24516 13.3062 5.24516C13.001 5.24516 12.7075 5.36193 12.4857 5.57151L6.49764 11.5596C6.38988 11.6673 6.3044 11.7952 6.24608 11.936C6.18776 12.0768 6.15774 12.2277 6.15774 12.38C6.15774 12.5324 6.18776 12.6833 6.24608 12.8241C6.3044 12.9648 6.38988 13.0927 6.49764 13.2005L10.2741 16.9778C8.99943 19.0503 8.06389 21.313 7.50277 23.6806H2.15414C1.84646 23.6806 1.55137 23.8028 1.33381 24.0203C1.11624 24.2379 0.994019 24.533 0.994019 24.8407V33.3086C0.994019 33.6163 1.11624 33.9114 1.33381 34.129C1.55137 34.3465 1.84646 34.4688 2.15414 34.4688H4.93843C5.24612 34.4688 5.5412 34.3465 5.75876 34.129C5.97633 33.9114 6.09856 33.6163 6.09856 33.3086C6.09856 33.001 5.97633 32.7059 5.75876 32.4883C5.5412 32.2707 5.24612 32.1485 4.93843 32.1485H3.31426V25.9999H8.43643C8.70614 26.0008 8.96774 25.9077 9.17624 25.7366C9.38475 25.5656 9.52714 25.3272 9.57892 25.0625C10.1045 22.3452 11.1727 19.7619 12.7196 17.4669C12.8697 17.2437 12.9376 16.9752 12.9117 16.7074C12.8858 16.4396 12.7677 16.1891 12.5776 15.9987L8.95802 12.3791L13.3052 8.03097L16.9248 11.6506C17.115 11.841 17.3655 11.9593 17.6334 11.9852C17.9013 12.0111 18.1699 11.943 18.3931 11.7926C20.6873 10.2477 23.2693 9.1808 25.9849 8.65558C26.249 8.60392 26.4869 8.46208 26.6579 8.25434C26.8289 8.04659 26.9223 7.78587 26.9223 7.5168V2.39092H33.0709V7.51309C33.07 7.78293 33.1633 8.04463 33.3345 8.25316C33.5058 8.46168 33.7444 8.60399 34.0092 8.65558C36.7265 9.18123 39.3098 10.2494 41.6048 11.7963C41.828 11.9466 42.0965 12.0146 42.3644 11.9887C42.6322 11.9628 42.8827 11.8445 43.073 11.6543L46.6926 8.03469L51.0408 12.3828L47.4212 16.0024C47.2309 16.1927 47.1127 16.4432 47.0868 16.7111C47.0609 16.9789 47.1289 17.2474 47.2792 17.4707C48.8235 19.7651 49.89 22.347 50.4152 25.0625C50.4668 25.3264 50.6086 25.5642 50.8161 25.7352C51.0237 25.9061 51.2841 25.9997 51.5531 25.9999H56.6799V32.1476H55.0557C54.748 32.1476 54.4529 32.2698 54.2354 32.4874C54.0178 32.7049 53.8956 33 53.8956 33.3077C53.8956 33.6154 54.0178 33.9105 54.2354 34.128C54.4529 34.3456 54.748 34.4678 55.0557 34.4678H57.84C58.1477 34.4678 58.4428 34.3456 58.6603 34.128C58.8779 33.9105 59.0001 33.6154 59.0001 33.3077V24.8397C59.0001 24.5321 58.8779 24.237 58.6603 24.0194C58.4428 23.8018 58.1477 23.6796 57.84 23.6796Z" fill="white"/>
</svg>
